<?xml version="1.0" ?><svg id="Layer_1" style="enable-background:new 0 0 48 48;" version="1.1" viewBox="0 0 48 48" xml:space="preserve" xmlns="http://www.w3.org/2000/svg" xmlns:xlink="http://www.w3.org/1999/xlink"><style type="text/css">
	.st0{fill:#A57B51;}
	.st1{fill:#BF8E5F;}
	.st2{fill:#666666;}
	.st3{fill:#FFFFFF;}
	.st4{fill:#515151;}
	.st5{fill:#FFCC66;}
	.st6{fill:#E6E6E6;}
	.st7{fill:#ED7B72;}
	.st8{fill:#D56455;}
	.st9{fill:#92D3FF;}
	.st10{fill:#3AB7FC;}
	.st11{fill:#CCCCCC;}
	.st12{fill:#B3B3B3;}
	.st13{fill:#333333;}
	.st14{fill:#ED7161;}
	.st15{fill:#48A0DC;}
	.st16{fill:#88C057;}
	.st17{fill:#E7B95D;}
	.st18{fill:#638B3F;}
	.st19{opacity:0.8;fill:#E6E6E6;}
	.st20{fill:#E0B568;}
	.st21{fill:#98D862;}
	.st22{fill:#E0AE55;}
</style><g id="XMLID_1171_"><path class="st2" d="M36.285,25.203L28.833,14.71c-0.442,0.483-1.65,0.355-2.374,0.997   C21.063,20.491,8.776,28.95,3.581,30.284c-5.892,1.513-2.731,5.504-2.731,5.504l9.23,11.966c0.141,0.183,0.406,0.209,0.581,0.059   l25.56-22.073C36.377,25.604,36.405,25.372,36.285,25.203z" id="XMLID_2348_"/><path class="st4" d="M36.285,25.203l-0.669-0.942L9.414,46.89l0.666,0.864c0.141,0.183,0.406,0.209,0.581,0.059   l25.56-22.073C36.377,25.604,36.405,25.372,36.285,25.203z" id="XMLID_2347_"/><path class="st5" d="M43.422,1.021l-16.979,14.7c0,0,1.906,3.452,5.807,3.799c0,0-1.717-2.432,2.767-4.45   c0,0,5.431-3.809,8.959-7.964c0.187-0.22,0.436-0.377,0.718-0.441c0.327-0.076,0.81-0.156,1.384-0.153   c0.336,0.002,0.663-0.113,0.912-0.338c0.618-0.558,1.495-1.832,0.673-4.222C47.662,1.953,46.369-1.524,43.422,1.021z" id="XMLID_2346_"/><ellipse class="st3" cx="30.338" cy="15.243" id="XMLID_2343_" rx="1.061" ry="1.064" transform="matrix(0.7568 -0.6536 0.6536 0.7568 -2.5858 23.535)"/><ellipse class="st3" cx="37.391" cy="9.152" id="XMLID_2334_" rx="1.061" ry="1.064" transform="matrix(0.7568 -0.6536 0.6536 0.7568 3.1102 26.6638)"/><ellipse class="st3" cx="44.615" cy="2.913" id="XMLID_1176_" rx="1.061" ry="1.064" transform="matrix(0.7568 -0.6536 0.6536 0.7568 8.9445 29.8686)"/><ellipse class="st6" cx="3.406" cy="33.926" id="XMLID_1173_" rx="1.212" ry="1.216" transform="matrix(0.7569 -0.6536 0.6536 0.7569 -21.3452 10.4746)"/></g></svg>